<?xml version="1.0" encoding="utf-8"?>
<!-- Generator: Adobe Illustrator 19.0.0, SVG Export Plug-In . SVG Version: 6.00 Build 0)  -->
<svg version="1.1" id="Capa_1" xmlns="http://www.w3.org/2000/svg" xmlns:xlink="http://www.w3.org/1999/xlink" x="0px" y="0px"
	 viewBox="0 0 841.9 595.3" style="enable-background:new 0 0 841.9 595.3;" xml:space="preserve">
<style type="text/css">
	.st0{fill:none;stroke:#000000;stroke-miterlimit:10;}
</style>
<g id="XMLID_17_">
	<g id="XMLID_5_">
		<path id="XMLID_3_" class="st0" d="M233.8,218.7L233.8,218.7c-2.6,0-4.7-2.1-4.7-4.7v-30.6c0-2.6,2.1-4.7,4.7-4.7l0,0
			c2.6,0,4.7,2.1,4.7,4.7v30.6C238.5,216.5,236.4,218.7,233.8,218.7z"/>
		<path id="XMLID_4_" class="st0" d="M233.8,272.3L233.8,272.3c-2.6,0-4.7-2.1-4.7-4.7v-30.6c0-2.6,2.1-4.7,4.7-4.7l0,0
			c2.6,0,4.7,2.1,4.7,4.7v30.6C238.5,270.1,236.4,272.3,233.8,272.3z"/>
	</g>
	<g id="XMLID_6_">
		<path id="XMLID_8_" class="st0" d="M433.8,218.7L433.8,218.7c-2.6,0-4.7-2.1-4.7-4.7v-30.6c0-2.6,2.1-4.7,4.7-4.7l0,0
			c2.6,0,4.7,2.1,4.7,4.7v30.6C438.5,216.5,436.4,218.7,433.8,218.7z"/>
		<path id="XMLID_7_" class="st0" d="M433.8,272.3L433.8,272.3c-2.6,0-4.7-2.1-4.7-4.7v-30.6c0-2.6,2.1-4.7,4.7-4.7l0,0
			c2.6,0,4.7,2.1,4.7,4.7v30.6C438.5,270.1,436.4,272.3,433.8,272.3z"/>
	</g>
</g>
<g id="XMLID_18_">
	<path id="XMLID_2_" class="st0" d="M442.8,280.3H224.8c-6.3,0-11.3-5.1-11.3-11.3v-85c0-6.3,5.1-11.3,11.3-11.3h217.9
		c6.3,0,11.3,5.1,11.3,11.3v85C454.1,275.3,449,280.3,442.8,280.3z"/>
	<g id="XMLID_16_">
		<circle id="XMLID_10_" class="st0" cx="259.7" cy="180.7" r="4.1"/>
		<circle id="XMLID_15_" class="st0" cx="407.9" cy="180.7" r="4.1"/>
		<circle id="XMLID_11_" class="st0" cx="333.8" cy="180.7" r="4.1"/>
	</g>
	<g id="XMLID_9_">
		<circle id="XMLID_12_" class="st0" cx="259.7" cy="272.3" r="4.1"/>
		<circle id="XMLID_13_" class="st0" cx="407.9" cy="272.3" r="4.1"/>
		<circle id="XMLID_14_" class="st0" cx="333.8" cy="272.3" r="4.1"/>
	</g>
</g>
<g id="XMLID_23_">
	<circle id="XMLID_26_" class="st0" cx="262.9" cy="53.6" r="4.1"/>
	<circle id="XMLID_25_" class="st0" cx="411.1" cy="53.6" r="4.1"/>
	<circle id="XMLID_24_" class="st0" cx="337" cy="53.6" r="4.1"/>
</g>
<g id="XMLID_19_">
	<circle id="XMLID_22_" class="st0" cx="262.9" cy="145.1" r="4.1"/>
	<circle id="XMLID_21_" class="st0" cx="411.1" cy="145.1" r="4.1"/>
	<circle id="XMLID_20_" class="st0" cx="337" cy="145.1" r="4.1"/>
</g>
<path id="XMLID_28_" class="st0" d="M413.5,153.2H260.5c-3.1,0-5.7-2.6-5.7-5.7V51.1c0-3.1,2.6-5.7,5.7-5.7h153.1
	c3.1,0,5.7,2.6,5.7,5.7v96.4C419.2,150.6,416.7,153.2,413.5,153.2z"/>
</svg>
